<svg xmlns="http://www.w3.org/2000/svg" xmlns:xlink="http://www.w3.org/1999/xlink" width="218.222" height="56.739" viewBox="0 0 218.222 56.739"><defs><clipPath id="a"><rect width="218.222" height="56.739" fill="none"/></clipPath></defs><g clip-path="url(#a)"><path d="M22.843,1.553,11.358,13.038l-.417.417-8.2,8.2a9.365,9.365,0,0,0,0,13.244l4,4C5.1,33.46,7.18,32.5,11.58,27.821l6.863-6.863.417-.418L30.346,9.056a5.305,5.305,0,1,0-7.5-7.5" transform="translate(0 0)" fill="#001943"/><path d="M50.62,28.35,43.339,35.63l.007.007-8.614,8.614a9.365,9.365,0,0,0,0,13.244l4,4c-1.65-5.44.433-6.4,4.832-11.079l7.281-7.281-.007-.007,8.614-8.614a9.365,9.365,0,0,0,0-13.244l-4-4c1.65,5.441-.432,6.4-4.832,11.079" transform="translate(-20.409 -11.019)" fill="#ffc001"/><path d="M79.652,60.358,73.813,66.2l-1.442,1.442L60.887,79.123a5.305,5.305,0,0,0,7.5,7.5L79.874,75.141,81.316,73.7l7.173-7.173a9.365,9.365,0,0,0,0-13.244l-4-4c1.65,5.441-.432,6.4-4.833,11.079" transform="translate(-37.855 -31.441)" fill="#001943"/><path d="M177.515,37.433h18.932v5.1H183.372v6.386h12.319v5.1H183.372v6.462h13.075v5.1H177.515Z" transform="translate(-113.258 -23.883)" fill="#001943"/><path d="M241.346,68.786a7.552,7.552,0,0,1-2.06-5.649V54.86H235.81V49.948H236a3.441,3.441,0,0,0,2.437-.794,3.1,3.1,0,0,0,.85-2.381V45.262h5.669v4.686h4.836V54.86h-4.836v7.9a3,3,0,0,0,.869,2.362,3.878,3.878,0,0,0,2.645.775,9.7,9.7,0,0,0,1.322-.113v4.837a17.707,17.707,0,0,1-2.645.189,7.928,7.928,0,0,1-5.8-2.022" transform="translate(-150.451 -28.878)" fill="#001943"/><path d="M286.465,77.058a9.934,9.934,0,0,1-3.8-3.911,11.27,11.27,0,0,1-1.341-5.461,11.121,11.121,0,0,1,1.36-5.479,10.01,10.01,0,0,1,3.741-3.854,10.26,10.26,0,0,1,5.291-1.4,10.827,10.827,0,0,1,5.479,1.323,8.83,8.83,0,0,1,3.514,3.647,11.086,11.086,0,0,1,1.209,5.2,7.193,7.193,0,0,1-.265,2.191H287.221a4.858,4.858,0,0,0,1.568,3.117,4.912,4.912,0,0,0,3.382,1.153,5.234,5.234,0,0,0,2.569-.6,4.319,4.319,0,0,0,1.7-1.663l4.535,2.154a7.519,7.519,0,0,1-3.344,3.647,11.778,11.778,0,0,1-11.167-.057m9.447-11.9a4.023,4.023,0,0,0-1.323-2.664,4.181,4.181,0,0,0-2.872-1,4.353,4.353,0,0,0-2.853.945,4.617,4.617,0,0,0-1.53,2.721Z" transform="translate(-179.49 -36.338)" fill="#001943"/><path d="M349.757,85.358a8.626,8.626,0,0,1-3.7-4.629l5.253-1.852a3.929,3.929,0,0,0,1.7,2.267,5.509,5.509,0,0,0,3.061.831,4.625,4.625,0,0,0,3.325-1.152,4.154,4.154,0,0,0,1.209-3.156V74.98a7.457,7.457,0,0,1-5.517,2.04,10.151,10.151,0,0,1-5.12-1.3,9.268,9.268,0,0,1-3.571-3.609,11.034,11.034,0,0,1-.019-10.3,9.121,9.121,0,0,1,3.514-3.571,10.062,10.062,0,0,1,5.082-1.285,7.432,7.432,0,0,1,6.009,2.607V57.408h5.29v20.26a8.953,8.953,0,0,1-4.931,8.2,11.255,11.255,0,0,1-5.272,1.209,11.559,11.559,0,0,1-6.311-1.719m2.589-14.838a4.82,4.82,0,0,0,3.533,1.36,4.553,4.553,0,0,0,3.42-1.342,4.853,4.853,0,0,0,1.3-3.533,4.988,4.988,0,0,0-1.3-3.571,4.489,4.489,0,0,0-3.42-1.38,4.726,4.726,0,0,0-4.913,4.95,4.72,4.72,0,0,0,1.379,3.515" transform="translate(-220.186 -36.338)" fill="#001943"/><path d="M415.051,57.808h5.29v3.1a4.928,4.928,0,0,1,2.154-2.57,7.158,7.158,0,0,1,3.439-.756h1.209v4.912h-1.776a4.534,4.534,0,0,0-3.382,1.285,4.842,4.842,0,0,0-1.266,3.552V78.44h-5.668Z" transform="translate(-264.809 -36.738)" fill="#001943"/><path d="M454.976,76.907a5.37,5.37,0,0,1-1.927-4.384,5.609,5.609,0,0,1,1.832-4.327,10.544,10.544,0,0,1,5.5-2.286L466.086,65v-.567a2.471,2.471,0,0,0-.945-1.965,3.751,3.751,0,0,0-2.494-.793,4.507,4.507,0,0,0-2.664.812A4.641,4.641,0,0,0,458.3,64.7l-4.534-2.154a7.692,7.692,0,0,1,3.382-4.081A11.689,11.689,0,0,1,467.5,57.9a7.387,7.387,0,0,1,3.136,2.645,6.94,6.94,0,0,1,1.115,3.892v13.6h-5.29V76.113a7.814,7.814,0,0,1-2.721,1.795,9.584,9.584,0,0,1-3.477.586,8.083,8.083,0,0,1-5.291-1.587m4.629-3.1a2.891,2.891,0,0,0,1.8.529,4.577,4.577,0,0,0,3.382-1.3,4.388,4.388,0,0,0,1.3-3.231V69.16l-4.686.831a3.742,3.742,0,0,0-1.871.793,1.99,1.99,0,0,0-.623,1.55,1.743,1.743,0,0,0,.7,1.474" transform="translate(-289.053 -36.338)" fill="#001943"/><path d="M516.206,57.409h5.29V59.94a4.845,4.845,0,0,1,2.267-2.249,7.932,7.932,0,0,1,3.515-.737A8.139,8.139,0,0,1,531,57.8a6.122,6.122,0,0,1,2.55,2.287,7.3,7.3,0,0,1,6.386-3.137,7.823,7.823,0,0,1,3.949.982,7.04,7.04,0,0,1,2.7,2.759,8.3,8.3,0,0,1,.982,4.081V78.041H541.9V65.986a4.1,4.1,0,0,0-.964-2.872,3.789,3.789,0,0,0-5.253,0,4.1,4.1,0,0,0-.964,2.872V78.041h-5.668V65.986a4.1,4.1,0,0,0-.964-2.872,3.788,3.788,0,0,0-5.252,0,4.1,4.1,0,0,0-.964,2.872V78.041h-5.668Z" transform="translate(-329.348 -36.338)" fill="#001943"/><path d="M177.4,120.8h2.946a2.139,2.139,0,0,1,1.492.5,1.875,1.875,0,0,1,.367,2.136,1.654,1.654,0,0,1-.532.6,1.9,1.9,0,0,1,.744.715,2.116,2.116,0,0,1-.367,2.5,2.449,2.449,0,0,1-1.694.555H177.4Zm2.927,2.88a1.148,1.148,0,0,0,.819-.292,1,1,0,0,0,.311-.762.9.9,0,0,0-.306-.729,1.233,1.233,0,0,0-.824-.259h-2v2.042Zm.066,3.285a1.41,1.41,0,0,0,.979-.329,1.141,1.141,0,0,0,.367-.894,1.16,1.16,0,0,0-.367-.894,1.386,1.386,0,0,0-.979-.338h-2.071v2.456Z" transform="translate(-113.182 -77.074)" fill="#001943"/><path d="M203.537,131.091a1.785,1.785,0,0,1-.678-.711,2.187,2.187,0,0,1-.245-1.049v-3.172h.875v3.078a1.252,1.252,0,0,0,.339.913,1.178,1.178,0,0,0,.885.348,1.155,1.155,0,0,0,.885-.362,1.368,1.368,0,0,0,.339-.974v-3h.885v5.073h-.856v-.621a1.486,1.486,0,0,1-.6.546,1.87,1.87,0,0,1-.847.188,1.9,1.9,0,0,1-.979-.254" transform="translate(-129.272 -80.491)" fill="#001943"/><path d="M225.784,130.782a2.021,2.021,0,0,1-.809-.984l.706-.357a1.751,1.751,0,0,0,.593.7,1.434,1.434,0,0,0,.819.254,1.158,1.158,0,0,0,.7-.2.633.633,0,0,0,.028-1.021,1.07,1.07,0,0,0-.527-.231l-.762-.1a1.9,1.9,0,0,1-1.016-.565,1.385,1.385,0,0,1-.339-.932,1.353,1.353,0,0,1,.231-.781,1.521,1.521,0,0,1,.64-.527,2.146,2.146,0,0,1,.908-.189,2.17,2.17,0,0,1,1.181.329,1.836,1.836,0,0,1,.748.913l-.7.357a1.535,1.535,0,0,0-.522-.611,1.291,1.291,0,0,0-.739-.226.967.967,0,0,0-.621.188.6.6,0,0,0-.235.49.609.609,0,0,0,.221.494,1.034,1.034,0,0,0,.485.231l.838.113a1.913,1.913,0,0,1,.983.579,1.405,1.405,0,0,1,.353.945,1.318,1.318,0,0,1-.235.772,1.575,1.575,0,0,1-.659.532,2.323,2.323,0,0,1-.969.193,2.35,2.35,0,0,1-1.3-.362" transform="translate(-143.538 -80.292)" fill="#001943"/><path d="M246.732,121.058a.594.594,0,1,1-.151.395.533.533,0,0,1,.151-.395m-.047,1.751h.875v5.073h-.875Z" transform="translate(-157.323 -77.141)" fill="#001943"/><path d="M260.829,125.959h.856v.621a1.487,1.487,0,0,1,.6-.546,1.866,1.866,0,0,1,.847-.188,1.908,1.908,0,0,1,.969.249,1.826,1.826,0,0,1,.682.682,1.908,1.908,0,0,1,.249.969v3.285h-.885v-3a1.378,1.378,0,0,0-.334-.979,1.148,1.148,0,0,0-.88-.358,1.171,1.171,0,0,0-.889.362,1.358,1.358,0,0,0-.344.974v3h-.875Z" transform="translate(-166.413 -80.292)" fill="#001943"/><path d="M284.378,130.8a2.45,2.45,0,0,1-.913-.955,2.982,2.982,0,0,1,0-2.715,2.413,2.413,0,0,1,.885-.941,2.379,2.379,0,0,1,1.256-.339,2.336,2.336,0,0,1,1.266.339,2.261,2.261,0,0,1,.828.9,2.571,2.571,0,0,1,.24,1.671h-3.878a1.661,1.661,0,0,0,.245.838,1.583,1.583,0,0,0,.588.555,1.633,1.633,0,0,0,.8.2,1.569,1.569,0,0,0,1.421-.838l.734.376a2.041,2.041,0,0,1-.828.9,2.636,2.636,0,0,1-2.635.009m2.654-2.8a1.367,1.367,0,0,0-.428-.984,1.4,1.4,0,0,0-1-.391,1.477,1.477,0,0,0-1.007.372,1.6,1.6,0,0,0-.518,1Z" transform="translate(-180.645 -80.292)" fill="#001943"/><path d="M307.475,130.782a2.022,2.022,0,0,1-.809-.984l.706-.357a1.751,1.751,0,0,0,.593.7,1.434,1.434,0,0,0,.819.254,1.158,1.158,0,0,0,.7-.2.633.633,0,0,0,.028-1.021,1.07,1.07,0,0,0-.527-.231l-.762-.1a1.9,1.9,0,0,1-1.016-.565,1.385,1.385,0,0,1-.339-.932,1.353,1.353,0,0,1,.231-.781,1.522,1.522,0,0,1,.64-.527,2.146,2.146,0,0,1,.908-.189,2.17,2.17,0,0,1,1.181.329,1.836,1.836,0,0,1,.748.913l-.7.357a1.535,1.535,0,0,0-.522-.611,1.291,1.291,0,0,0-.739-.226.967.967,0,0,0-.621.188.6.6,0,0,0-.235.49.609.609,0,0,0,.221.494,1.034,1.034,0,0,0,.485.231l.838.113a1.913,1.913,0,0,1,.983.579,1.405,1.405,0,0,1,.353.945,1.318,1.318,0,0,1-.235.772,1.575,1.575,0,0,1-.659.532,2.323,2.323,0,0,1-.969.193,2.35,2.35,0,0,1-1.3-.362" transform="translate(-195.658 -80.292)" fill="#001943"/><path d="M328.561,130.782a2.021,2.021,0,0,1-.809-.984l.706-.357a1.752,1.752,0,0,0,.593.7,1.434,1.434,0,0,0,.819.254,1.158,1.158,0,0,0,.7-.2.633.633,0,0,0,.028-1.021,1.07,1.07,0,0,0-.527-.231l-.762-.1a1.9,1.9,0,0,1-1.016-.565,1.385,1.385,0,0,1-.339-.932,1.354,1.354,0,0,1,.231-.781,1.521,1.521,0,0,1,.64-.527,2.147,2.147,0,0,1,.908-.189,2.17,2.17,0,0,1,1.181.329,1.836,1.836,0,0,1,.748.913l-.7.357a1.535,1.535,0,0,0-.522-.611,1.291,1.291,0,0,0-.739-.226.966.966,0,0,0-.621.188.6.6,0,0,0-.235.49.609.609,0,0,0,.221.494,1.034,1.034,0,0,0,.485.231l.838.113a1.913,1.913,0,0,1,.984.579,1.405,1.405,0,0,1,.353.945,1.318,1.318,0,0,1-.235.772,1.576,1.576,0,0,1-.659.532,2.323,2.323,0,0,1-.969.193,2.35,2.35,0,0,1-1.3-.362" transform="translate(-209.111 -80.292)" fill="#001943"/></g></svg>